<?xml version="1.0" encoding="UTF-8"?>
<svg id="Layer_1" xmlns="http://www.w3.org/2000/svg" version="1.1" viewBox="0 0 513 100">
  <!-- Generator: Adobe Illustrator 29.0.0, SVG Export Plug-In . SVG Version: 2.1.0 Build 186)  -->
  <defs>
    <style>
      .st0 {
        font-family: ArialMT, Arial;
        font-size: 23.3px;
      }

      .st0, .st1 {
        isolation: isolate;
      }

      .st2 {
        stroke: #060606;
        stroke-width: 2.8px;
      }

      .st2, .st3 {
        fill: none;
        stroke-linecap: round;
      }

      .st2, .st4 {
        fill-rule: evenodd;
        stroke-miterlimit: 79.8;
      }

      .st3 {
        stroke: #000;
        stroke-linejoin: round;
        stroke-width: 1.4px;
      }

      .st4 {
        fill: red;
        stroke: red;
        stroke-width: 0px;
      }
    </style>
  </defs>
  <g id="Document">
    <g id="Spread">
      <g id="Layer_11" data-name="Layer_1">
        <path class="st2" d="M1.4,1.4v97.2h510.2V1.4H1.4Z" marker-end="none" marker-start="none"/>
        <g id="Group">
          <path d="M8.9,58.1h4.1v29.6h-4.1v-29.6ZM10.9,83.7h16.8v3.9H10.9v-3.9ZM10.9,71h14.6v3.9h-14.6v-3.9ZM10.9,58.1h16.8v3.9H10.9v-3.9Z" marker-end="none" marker-start="none"/>
          <path d="M49.1,88c-1.4,0-2.7-.1-4-.4-1.3-.3-2.4-.7-3.5-1.2-1.1-.5-2.1-1.2-3.1-2h0l2.6-3.2h0c1.1,1,2.3,1.7,3.7,2.2,1.3.5,2.8.7,4.4.7,2.1,0,3.8-.4,4.9-1.2,1.2-.8,1.7-1.9,1.7-3.4h0c0-1.1-.3-1.9-.8-2.5-.5-.6-1.2-1.1-2.1-1.3-.8-.3-1.9-.6-3.2-.8,0,0,0,0-.1,0s0,0-.1,0h-.3c-2-.4-3.5-.8-4.8-1.2-1.2-.4-2.3-1.2-3.1-2.3-.9-1.1-1.3-2.7-1.3-4.8h0c0-1.9.4-3.4,1.2-4.7.8-1.3,2-2.3,3.5-3,1.6-.7,3.4-1,5.6-1s2.1.1,3.1.3c1,.2,2,.6,3,1,1,.5,2,1,2.9,1.7h0l-2.3,3.3h0c-1.1-.8-2.2-1.4-3.3-1.9-1.1-.4-2.2-.6-3.3-.6-2,0-3.5.4-4.7,1.2-1.1.8-1.7,2-1.7,3.4h0c0,1,.3,1.8.9,2.4.6.6,1.3,1,2.1,1.3.9.3,2,.6,3.5.9,0,0,.1,0,.2,0,0,0,0,0,.2,0,0,0,.1,0,.2,0,0,0,.2,0,.2,0,1.8.4,3.2.8,4.4,1.3,1.2.5,2.2,1.3,3,2.4.8,1.1,1.2,2.6,1.2,4.6h0c0,1.8-.4,3.4-1.3,4.7-.8,1.3-2.1,2.3-3.7,2.9-1.6.7-3.5,1-5.8,1Z" marker-end="none" marker-start="none"/>
          <path d="M76.6,60.5h4.1v27.2h-4.1v-27.2ZM68.4,58.1h20.6v3.9h-20.6v-3.9Z" marker-end="none" marker-start="none"/>
          <path d="M106.9,58.1h3.5l10.8,29.6h-4.4l-8.1-23.9-8.1,23.9h-4.4l10.8-29.6ZM101.1,77.2h15.4v3.9h-15.4v-3.9Z" marker-end="none" marker-start="none"/>
          <path d="M134.7,83.8h7.9c2.1,0,3.6-.4,4.5-1.2,1-.8,1.4-1.9,1.4-3.4h0c0-1.1-.2-1.9-.5-2.6-.3-.7-.9-1.3-1.6-1.7-.7-.4-1.7-.6-2.8-.6h-8.9v-3.7h8.9c1.5,0,2.7-.4,3.4-1.1.8-.7,1.2-1.8,1.2-3.2h0c0-1.5-.4-2.6-1.3-3.3-.9-.7-2.1-1.1-3.9-1.1h-8.4v-3.8h9.1c1.9,0,3.5.3,4.7,1,1.3.7,2.2,1.6,2.9,2.8.6,1.2.9,2.6.9,4.3h0c0,1-.2,2-.6,2.9-.4.9-1,1.6-1.8,2.3-.8.6-1.8,1.1-3,1.3,1.2.2,2.2.6,3.1,1.3.9.7,1.5,1.5,2,2.5.5,1,.7,2.1.7,3.3h0c0,1.7-.3,3.1-1,4.3-.7,1.2-1.7,2.2-3,2.8-1.3.7-2.8,1-4.5,1h-9.4v-3.8ZM132.3,58.1h4.1v29.6h-4.1v-29.6Z" marker-end="none" marker-start="none"/>
          <path d="M165.6,58.1h4.1v29.6h-4.1v-29.6ZM167.7,83.7h16.7v3.9h-16.7v-3.9Z" marker-end="none" marker-start="none"/>
          <path d="M200.1,87.7h-4.1v-29.6h4.1v29.6Z" marker-end="none" marker-start="none"/>
          <path d="M222.8,88c-1.4,0-2.7-.1-4-.4-1.3-.3-2.4-.7-3.5-1.2-1.1-.5-2.1-1.2-3.1-2h0l2.6-3.2h0c1.1,1,2.3,1.7,3.7,2.2,1.3.5,2.8.7,4.4.7,2.1,0,3.8-.4,4.9-1.2,1.2-.8,1.7-1.9,1.7-3.4h0c0-1.1-.3-1.9-.8-2.5-.5-.6-1.2-1.1-2.1-1.3-.8-.3-1.9-.6-3.2-.8,0,0,0,0-.1,0s0,0-.1,0h-.3c-2-.4-3.5-.8-4.8-1.2-1.2-.4-2.3-1.2-3.1-2.3-.9-1.1-1.3-2.7-1.3-4.8h0c0-1.9.4-3.4,1.2-4.7.8-1.3,2-2.3,3.5-3,1.6-.7,3.4-1,5.6-1s2.1.1,3.1.3c1,.2,2,.6,3,1,1,.5,2,1,2.9,1.7h0l-2.3,3.3h0c-1.1-.8-2.2-1.4-3.3-1.9-1.1-.4-2.2-.6-3.3-.6-2,0-3.5.4-4.7,1.2-1.1.8-1.7,2-1.7,3.4h0c0,1,.3,1.8.9,2.4.6.6,1.3,1,2.1,1.3.9.3,2,.6,3.5.9,0,0,.1,0,.2,0,0,0,0,0,.2,0,0,0,.1,0,.2,0,0,0,.2,0,.2,0,1.8.4,3.2.8,4.4,1.3,1.2.5,2.2,1.3,3,2.4.8,1.1,1.2,2.6,1.2,4.6h0c0,1.8-.4,3.4-1.3,4.7-.8,1.3-2.1,2.3-3.7,2.9-1.6.7-3.5,1-5.8,1Z" marker-end="none" marker-start="none"/>
          <path d="M262.8,58.1h4.1v29.6h-4.1v-29.6ZM246.1,58.1h4.1v29.6h-4.1v-29.6ZM248.7,71.1h16.2v3.9h-16.2v-3.9Z" marker-end="none" marker-start="none"/>
          <path d="M280.8,58.1h4.1v29.6h-4.1v-29.6ZM282.8,83.7h16.8v3.9h-16.8v-3.9ZM282.8,71h14.6v3.9h-14.6v-3.9ZM282.8,58.1h16.8v3.9h-16.8v-3.9Z" marker-end="none" marker-start="none"/>
          <path d="M314.9,83.7h6.6c2.2,0,3.8-.6,5-1.7,1.2-1.1,1.8-2.7,1.8-4.8v-8.7c0-2.1-.6-3.7-1.8-4.8-1.2-1.1-2.9-1.7-5-1.7h-6.6v-3.9h6.5c2.3,0,4.4.4,6,1.2,1.7.8,2.9,2,3.8,3.6s1.3,3.5,1.3,5.7v8.4c0,2.2-.4,4.1-1.3,5.7s-2.1,2.8-3.8,3.6c-1.7.8-3.7,1.2-6,1.2h-6.5v-3.9ZM312.2,58.1h4.1v29.6h-4.1v-29.6Z" marker-end="none" marker-start="none"/>
          <path d="M366.2,87.7h-4.1v-25.1l-4.2,2.6v-4.3l4.2-2.8h4.1v29.6Z" marker-end="none" marker-start="none"/>
          <path d="M388.1,88c-1.8,0-3.3-.3-4.7-1-1.3-.7-2.4-1.6-3.1-2.9-.7-1.2-1.1-2.7-1.1-4.3v-.5c0-1.5.4-2.9,1.1-4.2.7-1.3,1.7-2.3,2.9-2.9-1-.6-1.9-1.4-2.5-2.5-.6-1.1-.9-2.2-.9-3.4v-.7c0-1.5.3-2.9,1-4.1.7-1.2,1.6-2.1,2.9-2.7,1.2-.6,2.7-1,4.3-1s3.1.3,4.3,1c1.2.6,2.2,1.6,2.9,2.7.7,1.2,1,2.5,1,4.1v.7c0,1.2-.3,2.4-1,3.4-.6,1.1-1.5,1.9-2.5,2.4,1.2.7,2.2,1.7,3,3,.7,1.3,1.1,2.7,1.1,4.2v.5c0,1.6-.4,3.1-1.1,4.3-.7,1.2-1.8,2.2-3.1,2.9-1.3.7-2.9,1-4.7,1ZM388.1,84c1,0,1.8-.2,2.5-.6.7-.4,1.3-.9,1.7-1.6.4-.7.6-1.5.6-2.4v-.3c0-.9-.2-1.7-.6-2.4-.4-.7-1-1.2-1.7-1.6-.7-.4-1.6-.6-2.5-.6s-1.8.2-2.5.6c-.7.4-1.3.9-1.7,1.6-.4.7-.6,1.5-.6,2.4v.3c0,.9.2,1.7.6,2.4.4.7,1,1.2,1.7,1.6.7.4,1.6.6,2.5.6ZM388.1,70.6c.8,0,1.5-.2,2.2-.5.6-.4,1.1-.9,1.5-1.5.3-.7.5-1.4.5-2.3v-.3c0-.8-.2-1.6-.5-2.2-.3-.6-.8-1.1-1.5-1.5-.6-.3-1.4-.5-2.2-.5s-1.5.2-2.2.5c-.6.3-1.1.8-1.5,1.5-.3.6-.5,1.4-.5,2.2v.3c0,.9.2,1.6.5,2.3.3.7.8,1.2,1.5,1.5.6.4,1.4.5,2.2.5Z" marker-end="none" marker-start="none"/>
          <path d="M419.8,73v.7c-.4.6-.9,1.1-1.5,1.4-.7.3-1.5.4-2.4.4-1.4,0-2.6-.4-3.7-1.1-1.1-.7-1.9-1.7-2.5-3-.6-1.3-.9-2.8-.9-4.5h0c0-1.9.3-3.6,1-4.9.6-1.4,1.6-2.4,2.8-3.1,1.2-.7,2.7-1.1,4.4-1.1s3.2.4,4.4,1.1,2.1,1.8,2.8,3.1c.6,1.4,1,3,1,4.9h0c0,1.1-.1,2.2-.4,3.4-.3,1.2-.6,2.4-1.1,3.6,0,.2-.2.4-.2.5,0,.2-.2.4-.3.5l-6.2,12.7h-4.4l7.4-14.7ZM417,71.8c1.3,0,2.3-.4,3-1.3.7-.9,1.1-2.1,1.1-3.7h0c0-1.6-.4-2.8-1.1-3.6-.7-.9-1.7-1.3-3-1.3s-2.3.4-3,1.3c-.7.9-1.1,2.1-1.1,3.6h0c0,1.6.4,2.9,1.1,3.7.7.9,1.7,1.3,3,1.3Z" marker-end="none" marker-start="none"/>
          <path d="M445.5,88c-1.5,0-2.8-.3-3.9-.9-1.1-.6-2.1-1.4-2.8-2.5-.7-1.1-1.2-2.4-1.4-4h0s4.1,0,4.1,0h0c.1,1.1.6,1.9,1.3,2.6.7.6,1.6.9,2.8.9s2.3-.4,3-1.3c.7-.9,1.1-2.1,1.1-3.8v-2.5c0-1.6-.4-2.8-1.1-3.7-.7-.9-1.7-1.3-3-1.3s-1.4.2-2.1.6c-.7.4-1.2,1-1.7,1.7h-3.7v-15.6h14.9v3.9h-10.8v6.7c.5-.4,1.1-.7,1.7-1,.6-.2,1.3-.3,1.9-.3,1.7,0,3.1.4,4.3,1.1,1.2.7,2.1,1.7,2.7,3.1.6,1.4.9,3,.9,4.9v2.5c0,1.9-.3,3.5-1,4.9-.6,1.4-1.6,2.4-2.8,3.1-1.2.7-2.7,1.1-4.4,1.1Z" marker-end="none" marker-start="none"/>
        </g>
        <path class="st4" d="M469.2,60.2l-2.1,3.8c-.2.4-.7.4-1.1.1l-1.5-.8,1.1,5.9c.2,1.1-.5,1.1-.9.6l-2.6-2.9-.4,1.5c0,.2-.3.4-.6.3l-3.3-.7.9,3.1c.2.7.3,1-.2,1.2l-1.2.5,5.6,4.6c.2.2.3.5.3.8l-.5,1.6c1.9-.2,3.7-.5,5.6-.8.2,0,.5.3.5.5l-.3,5.9h.9s-.1-5.9-.1-5.9c0-.2.3-.5.4-.5,1.9.2,3.7.6,5.6.8l-.5-1.6c0-.3,0-.6.3-.8l5.6-4.6-1.2-.6c-.5-.2-.4-.5-.2-1.2l.9-3.1-3.3.7c-.3,0-.5-.2-.6-.3l-.4-1.5-2.6,2.9c-.4.5-1.1.5-.9-.6l1.1-5.9-1.5.8c-.4.2-.8.3-1.1-.1"/>
        <g class="st1">
          <text class="st0" transform="translate(502 83.4) rotate(-90)"><tspan x="0" y="0">S</tspan></text>
          <text class="st0" transform="translate(502 65.3) rotate(-90)"><tspan x="0" y="0">S</tspan></text>
          <text class="st0" transform="translate(502 47.1) rotate(-90)"><tspan x="0" y="0">M</tspan></text>
        </g>
        <g id="Group_1">
          <path class="st3" d="M490.4,14.8c2.3-2.3,6-2.3,8.3,0,2.3,2.3,2.3,6,0,8.3-2.3,2.3-6,2.3-8.3,0-2.3-2.3-2.3-6,0-8.3Z" marker-end="none" marker-start="none"/>
          <g id="Group_2">
            <g id="Group_3">
              <path d="M493.8,20.9v-2.7c0-.2,0-.4-.2-.6-.1-.2-.2-.3-.4-.4-.2,0-.4-.1-.6-.1h0c-.2,0-.5,0-.6.1-.2,0-.3.2-.4.4-.1.2-.2.4-.2.6v2.7h-1.1v-2.7c0-.5,0-.9.3-1.2s.5-.6.8-.8c.3-.2.8-.3,1.2-.3h0c.5,0,.9,0,1.2.3.3.2.6.5.8.8.2.3.3.8.3,1.2v2.7h-1.1ZM490.3,21.4v-1.1h8v1.1h-8ZM494.7,18.8l-.3-1.1,3.9-2v1.3l-3.6,1.8Z" marker-end="none" marker-start="none"/>
            </g>
          </g>
        </g>
        <g id="Group_4">
          <g id="Group_5">
            <path d="M26.1,48.2c-3.8,0-7.2-.7-10.3-2.2-3-1.5-5.4-3.6-7.1-6.2-1.7-2.7-2.6-5.7-2.6-9.1s.9-6.4,2.6-9.1c1.7-2.7,4.1-4.8,7.1-6.2,3-1.5,6.5-2.2,10.3-2.2s6.3.5,9,1.6c2.7,1.1,4.9,2.7,6.7,4.7l-6.5,5.5c-2.4-2.6-5.2-4-8.6-4s-3.7.4-5.3,1.2c-1.5.8-2.7,1.9-3.6,3.4-.8,1.5-1.3,3.1-1.3,5s.4,3.6,1.3,5c.8,1.5,2,2.6,3.6,3.4,1.5.8,3.3,1.2,5.3,1.2,3.4,0,6.2-1.3,8.6-4l6.5,5.5c-1.8,2.1-4,3.6-6.7,4.7-2.7,1.1-5.7,1.6-9,1.6Z" marker-end="none" marker-start="none"/>
            <path d="M70.7,41h-15.4l-2.9,6.6h-10.5L58,13.7h10.1l16.1,33.8h-10.7l-2.9-6.6ZM67.7,33.9l-4.7-10.8-4.7,10.8h9.4Z" marker-end="none" marker-start="none"/>
            <path d="M121.8,13.7v33.8h-8.5l-16.1-18v18h-10.1V13.7h8.5l16.1,18V13.7h10.1Z" marker-end="none" marker-start="none"/>
            <path d="M153.5,41h-15.4l-2.9,6.6h-10.5l16.1-33.8h10.1l16.1,33.8h-10.7l-2.9-6.6ZM150.4,33.9l-4.7-10.8-4.7,10.8h9.4Z" marker-end="none" marker-start="none"/>
            <path d="M169.9,13.7h10.3v26.2h17.4v7.6h-27.7V13.7Z" marker-end="none" marker-start="none"/>
          </g>
        </g>
        <g id="Group_6">
          <g id="Group_7">
            <path d="M219.3,13.7h17.3c4,0,7.5.7,10.6,2.1,3.1,1.4,5.5,3.3,7.2,5.9,1.7,2.5,2.6,5.5,2.6,8.9s-.9,6.4-2.6,8.9c-1.7,2.5-4.1,4.5-7.2,5.9-3.1,1.4-6.6,2.1-10.6,2.1h-17.3V13.7ZM236.2,39.9c3.1,0,5.6-.8,7.5-2.5,1.9-1.6,2.8-3.9,2.8-6.8s-.9-5.2-2.8-6.8c-1.9-1.6-4.4-2.5-7.5-2.5h-6.5v18.5h6.5Z" marker-end="none" marker-start="none"/>
            <path d="M262.4,13.7h10.3v33.8h-10.3V13.7Z" marker-end="none" marker-start="none"/>
            <path d="M292.9,48.2c-3,0-5.8-.3-8.6-1-2.8-.7-5-1.6-6.8-2.7l3.4-7c1.6,1,3.5,1.8,5.7,2.4,2.2.6,4.3.9,6.4.9,4,0,5.9-.9,5.9-2.8s-.6-1.7-1.7-2.1c-1.1-.5-2.9-1-5.5-1.5-2.7-.5-5-1.1-6.9-1.8-1.8-.6-3.4-1.6-4.7-3-1.3-1.4-2-3.3-2-5.6s.6-3.9,1.8-5.6c1.2-1.7,3-3,5.4-3.9,2.4-1,5.4-1.4,8.9-1.4s4.8.2,7.1.7c2.3.5,4.4,1.2,6.2,2.2l-3.2,7.1c-3.5-1.7-6.8-2.6-10.1-2.6s-3.5.3-4.5.8c-.9.6-1.4,1.3-1.4,2.2s.6,1.6,1.7,2c1.1.5,2.9.9,5.4,1.4,2.8.5,5.1,1.1,6.9,1.8,1.8.6,3.4,1.6,4.7,3,1.3,1.4,2,3.2,2,5.6s-.6,3.9-1.8,5.5c-1.2,1.6-3,3-5.5,3.9-2.4,1-5.4,1.5-8.9,1.5Z" marker-end="none" marker-start="none"/>
            <path d="M321.6,21.3h-11.2v-7.6h32.7v7.6h-11.2v26.2h-10.3v-26.2Z" marker-end="none" marker-start="none"/>
            <path d="M362.9,38.5h-5.6v9h-10.3V13.7h16.7c3.3,0,6.2.5,8.6,1.5,2.4,1,4.3,2.5,5.6,4.3,1.3,1.9,2,4.1,2,6.6s-.6,4.6-1.9,6.4c-1.2,1.8-3,3.2-5.3,4.3l7.9,10.6h-11.1l-6.6-9ZM369.4,26.2c0-1.6-.5-2.8-1.6-3.7-1.1-.9-2.7-1.3-4.8-1.3h-5.7v9.9h5.7c2.1,0,3.7-.4,4.8-1.3,1.1-.9,1.6-2.1,1.6-3.6Z" marker-end="none" marker-start="none"/>
            <path d="M385.5,13.7h10.3v33.8h-10.3V13.7Z" marker-end="none" marker-start="none"/>
            <path d="M421.4,48.2c-3.8,0-7.3-.7-10.3-2.2-3-1.5-5.4-3.6-7.2-6.3-1.7-2.7-2.6-5.7-2.6-9.1s.9-6.4,2.6-9.1c1.7-2.7,4.1-4.8,7.2-6.3,3-1.5,6.5-2.2,10.3-2.2s6.3.5,9,1.6c2.7,1.1,4.9,2.7,6.7,4.7l-6.6,5.5c-2.4-2.6-5.2-4-8.6-4s-3.7.4-5.3,1.2c-1.5.8-2.7,1.9-3.6,3.4-.9,1.5-1.3,3.1-1.3,5s.4,3.6,1.3,5c.9,1.5,2.1,2.6,3.6,3.4,1.5.8,3.3,1.2,5.3,1.2,3.4,0,6.2-1.3,8.6-4l6.6,5.5c-1.8,2.1-4,3.6-6.7,4.7-2.7,1.1-5.7,1.6-9,1.6Z" marker-end="none" marker-start="none"/>
            <path d="M449.5,21.3h-11.2v-7.6h32.7v7.6h-11.2v26.2h-10.3v-26.2Z" marker-end="none" marker-start="none"/>
          </g>
        </g>
      </g>
    </g>
  </g>
</svg>